<svg width="34" height="27" viewBox="0 0 34 27" fill="none" xmlns="http://www.w3.org/2000/svg">
<path fill-rule="evenodd" clip-rule="evenodd" d="M29.7659 4.87311H26.5519C26.0807 2.07917 23.6553 -6.10352e-05 20.7835 -6.10352e-05H12.6702C9.79834 -6.10352e-05 7.37294 2.07917 6.90177 4.87311H3.81951C1.71005 4.87311 0 6.58316 0 8.69262V23.1804C0 25.2899 1.71005 26.9999 3.81951 26.9999H29.7659C31.8753 26.9999 33.5854 25.2899 33.5854 23.1804V8.69262C33.5854 6.58316 31.8753 4.87311 29.7659 4.87311ZM16.8585 23.5756C21.8048 23.5756 25.8146 19.5658 25.8146 14.6195C25.8146 9.67314 21.8048 5.66335 16.8585 5.66335C11.9122 5.66335 7.90243 9.67314 7.90243 14.6195C7.90243 19.5658 11.9122 23.5756 16.8585 23.5756ZM26.3415 9.21945C26.3415 8.56479 26.8722 8.03409 27.5268 8.03409H29.1073C29.762 8.03409 30.2927 8.56479 30.2927 9.21945C30.2927 9.87411 29.762 10.4048 29.1073 10.4048H27.5268C26.8722 10.4048 26.3415 9.87411 26.3415 9.21945ZM16.8585 19.756C19.6954 19.756 21.9951 17.4563 21.9951 14.6194C21.9951 11.7826 19.6954 9.48285 16.8585 9.48285C14.0217 9.48285 11.7219 11.7826 11.7219 14.6194C11.7219 17.4563 14.0217 19.756 16.8585 19.756Z" fill="white"/>
</svg>
