<svg width="30" height="16" viewBox="0 0 30 16" fill="none" xmlns="http://www.w3.org/2000/svg">
<path fill-rule="evenodd" clip-rule="evenodd" d="M2.80374 0.09198C1.25528 0.09198 0 1.34726 0 2.89572V13.1504C0 14.6989 1.25528 15.9541 2.80374 15.9541H25.5981C27.1466 15.9541 28.4019 14.6988 28.4019 13.1504V10.3925C28.4907 10.4189 28.5848 10.4331 28.6822 10.4331H28.7196C29.2616 10.4331 29.7009 9.9938 29.7009 9.45184V6.59436C29.7009 6.0524 29.2616 5.61305 28.7196 5.61305H28.6822C28.5848 5.61305 28.4907 5.62725 28.4019 5.65369V2.89572C28.4019 1.34726 27.1466 0.09198 25.5981 0.09198H2.80374ZM1.40187 2.89572C1.40187 2.12149 2.02951 1.49385 2.80374 1.49385H25.5981C26.3724 1.49385 27 2.12149 27 2.89572V13.1504C27 13.9246 26.3724 14.5523 25.5981 14.5523H2.80374C2.02951 14.5523 1.40187 13.9246 1.40187 13.1504V2.89572Z" fill="white"/>
</svg>
